<?xml version="1.0" encoding="utf-8"?>
<!-- Generator: Adobe Illustrator 28.3.0, SVG Export Plug-In . SVG Version: 6.00 Build 0)  -->
<svg version="1.1" id="b" xmlns="http://www.w3.org/2000/svg" xmlns:xlink="http://www.w3.org/1999/xlink" x="0px" y="0px"
	 viewBox="0 0 375.3 41.2" style="enable-background:new 0 0 375.3 41.2;" xml:space="preserve">
<style type="text/css">
	.st0{fill:#FFFFFF;}
</style>
<g id="c">
	<path class="st0" d="M41,11.8H7.5c-1.5,0-2.6,1.6-2.6,3.1c0,1.5,1.2,2.6,2.6,2.6H36c4.4,0,7.9,3.1,7.9,7.5c0,4.4-3.5,7.9-7.9,7.9
		H1.3c-0.5,0-0.8-0.4-0.8-0.8v-1.9c0-1.4,1.1-2.5,2.5-2.5h33.5c1.5,0,2.6-1.2,2.6-2.6c0-1.5-1.2-2.6-2.6-2.6H7.9
		c-4.4,0-7.9-3.1-7.9-7.5c0-4.4,3.5-8.3,7.9-8.3h34.7c0.5,0,0.8,0.4,0.8,0.8v1.9C43.5,10.7,42.4,11.8,41,11.8z"/>
	<path class="st0" d="M161.8,33.1c-1.1,0-2.3-0.4-3.2-1.1l-11-8.4c-0.8-0.6-1.9-1-2.9-1h-3.4c-1.1,0-2.1,0.4-2.9,1l-11,8.4
		c-0.9,0.7-2,1.1-3.2,1.1h-1.8c-0.9,0-1.6-0.7-1.6-1.6c0-0.5,0.2-1,0.6-1.3l13.5-10.4v-0.4L121.5,9.1c-0.4-0.3-0.6-0.7-0.6-1.2
		c0-0.9,0.7-1.6,1.6-1.6l1.9,0c1.1,0,2.3,0.4,3.2,1.1l10.9,8.4c0.8,0.7,1.9,1,3,1h3.4c1.1,0,2.1-0.4,3-1l10.9-8.4
		c0.9-0.7,2-1.1,3.2-1.1l1.8,0c0.4,0,0.8,0.2,1.1,0.5c0.3,0.3,0.5,0.7,0.5,1.1c0,0.5-0.2,0.9-0.6,1.2l-13.5,10.4l-0.1,0.5l0.1-0.2
		l13.5,10.4c0.4,0.3,0.6,0.7,0.6,1.2c0,0.9-0.7,1.6-1.6,1.6L161.8,33.1L161.8,33.1z"/>
	<path class="st0" d="M165,7.9c0,0.4-0.2,0.8-0.5,1.1L151,19.4c-0.2,0.2-0.2,0.5,0,0.7l13.5,10.4c0.3,0.3,0.5,0.7,0.5,1.1v0
		c0,0.7-0.6,1.4-1.4,1.4h-1.8c-1.1,0-2.2-0.4-3.1-1l-11-8.4c-0.9-0.7-2-1-3.1-1h-3.4c-1.1,0-2.2,0.4-3.1,1l-11,8.4
		c-0.9,0.7-2,1-3.1,1h-1.8c-0.7,0-1.4-0.6-1.4-1.4v0c0-0.4,0.2-0.8,0.5-1.1l13.5-10.4c0.2-0.2,0.2-0.5,0-0.7L121.6,9
		c-0.3-0.3-0.5-0.7-0.5-1.1c0-0.7,0.6-1.4,1.4-1.4c0.8,0,1.4,0,1.9,0c1.1,0,2.2,0.4,3.1,1l10.9,8.4c0.9,0.7,2,1.1,3.1,1.1h3.4
		c1.1,0,2.2-0.4,3.1-1.1l10.9-8.4c0.9-0.7,2-1,3.1-1c0.5,0,1.1,0,1.8,0C164.4,6.5,165,7.2,165,7.9L165,7.9z"/>
	<rect x="184.3" class="st0" width="1.8" height="41.2"/>
	<path class="st0" d="M238.5,9.7h-23.7c-5.4,0-9.8,4.4-9.8,9.8v0.9c0,5.4,4.4,9.8,9.8,9.8h23.7c0.4,0,0.7-0.3,0.7-0.7V28
		c0-1.1-0.9-2-2-2h-22.7c-3.1,0-5.7-2.5-5.7-5.7v-1c0-3.1,2.5-5.7,5.7-5.7h22.7c1.1,0,2-0.9,2-2v-1.5C239.1,10,238.8,9.7,238.5,9.7z
		"/>
	<path class="st0" d="M269.2,11.2c-0.7-1-2.2-1.5-3.3-1.5c-1.2,0-2.6,0.6-3.3,1.5L249,29.4c-0.2,0.3,0,0.8,0.4,0.8h2.5
		c0.8,0,1.6-0.4,2.1-1.1l2.6-3.5h18.5l2.6,3.5c0.5,0.7,1.3,1.1,2.1,1.1h2.5c0.4,0,0.6-0.5,0.4-0.8L269.2,11.2L269.2,11.2z
		 M259.3,21.9l6.2-8.4c0.1-0.2,0.4-0.2,0.5,0l6.2,8.4H259.3L259.3,21.9z"/>
	<path class="st0" d="M320.3,22h1.8c3.3,0,6.2-2.3,6.3-5.6c0.1-3.5-2.7-6.7-6.1-6.7h-27.3c-0.4,0-0.7,0.3-0.7,0.7v19.2
		c0,0.4,0.3,0.7,0.7,0.7h1.2c1.1,0,2-0.9,2-2v-5.9c0-0.2,0.1-0.3,0.3-0.3h13.9c0.9,0,1.7,0.3,2.4,0.8l8.5,6.6
		c0.7,0.5,1.5,0.8,2.4,0.8h1.7c0.6,0,1.1-0.6,1.1-1.2c0-0.3-0.2-0.5-0.4-0.7l-7.7-5.9C320,22.2,320.1,22,320.3,22z M298,18.2v-4.4
		h24.4c1.1,0,2.1,1.2,2.1,2.3c0,1.2-0.9,2.1-2,2.1H298L298,18.2z"/>
	<path class="st0" d="M369.1,18.2H347c-1.1,0-2-0.9-2-2s0.9-2.4,2-2.4h26c1.1,0,2-0.9,2-2v-1.5c0-0.4-0.3-0.7-0.7-0.7h-27
		c-3.4,0-6.1,3.1-6.1,6.5s2.8,5.8,6.1,5.8h22.1c1.1,0,2,0.9,2,2c0,1.1-0.9,2-2,2h-26c-1.1,0-2,0.9-2,2v1.5c0,0.4,0.3,0.7,0.7,0.7h27
		c3.4,0,6.1-2.8,6.1-6.1S372.5,18.2,369.1,18.2L369.1,18.2z"/>
	<path class="st0" d="M101.5,17.8c0.5-1,0.8-2.2,0.8-3.5c0-4.3-3.5-7.8-7.7-7.8H62v26.3h36.7c4.3,0,7.7-3.5,7.7-7.8
		C106.5,21.8,104.4,18.9,101.5,17.8z M66.8,11.4h27.8c1.6,0,2.9,1.3,2.9,2.9s-1.3,2.9-2.9,2.9H66.8V11.4z M98.7,28H66.8v-5.9h31.9
		c1.6,0,2.9,1.3,2.9,2.9S100.3,28,98.7,28z"/>
</g>
</svg>
